<?xml version="1.0" encoding="UTF-8"?>
<svg id="Layer_2" xmlns="http://www.w3.org/2000/svg" version="1.1" viewBox="0 0 470 509.1">
  <!-- Generator: Adobe Illustrator 29.8.4, SVG Export Plug-In . SVG Version: 2.1.1 Build 6)  -->
  <defs>
    <style>
      .st0 {
        fill: #ff2056;
      }
    </style>
  </defs>
  <g id="Layer_1-2">
    <path class="st0" d="M452.4,0c-53.2,3.5-101.3,8.1-139.1,50.2,9.9,29.6,26.2,65.9,46.6,95.2,20.5,29.4,44.8,50.6,68.6,53.3,35.3-33.1,53.7-112.6,23.9-198.7h0ZM178.7,8.5c-1,0-1.9,0-2.9.1-16.9,1.2-26.3,7.7-33.8,17.9-7.5,10.3-12.6,25-17.4,41.3-5.4,18.3-6.3,41.7-1.7,60.5,4.5,18.4,13.5,31.2,26.9,34.5.2-1.2.4-2.5.6-4.5.8-8.8,3.2-23.6,14.9-42.7-7.8-7.4-14.7-13.7-18.1-22.6-2.1-5.4-2.4-11.6-.8-18,1.6-6.4,4.7-13.1,9.6-21.3h0c0,0,0-.1,0-.1,8.6-13.7,26.5-21.7,43.5-27.8,5.4-1.9,10.5-3.4,15.4-4.6-11.1-7.4-21.9-13-36.3-12.7h0ZM223.8,35.5c-5.4,1.2-12.1,3-18.8,5.5-15.5,5.5-31.4,15-35.3,21.1-4.4,7.3-6.8,12.8-7.7,16.7-.9,3.9-.7,6.1.2,8.4,1.8,4.7,8.8,11.1,19.1,21.6l4.6,4.7-3.7,5.4c-5.4,7.9-8.8,14.6-11.1,20.3,5.8,3.4,11.9,5.7,17.9,6.9,2.4,57.5-19.4,43.9-70.5,73.6l15.9,31.7c26.6-10.3,42.5-16.2,56-28.9,12,12.1,26.9,22.4,44.1,33.4,0,11.6-51.4,80.2-52.5,79.9,1,1.2,2.1,2.2,3.3,3.2,29.1,9.1,53.5,8.2,75.9,1.3.1-.3.2-.6.3-.9,12.8-4.5,25.9-10.4,38.6-17.4,20.6-12.7,40.5-29.3,61.1-45.9-10.3-22.8-41.6-34.8-62.1-43.9,9.8-20,5.4-41.4,2.5-60.6,18.7-2,33-7.8,46.5-15.1-.5-.7-1-1.4-1.5-2.1-7-10.1-13.6-20.9-19.6-31.9-28.2,12.1-59,17-90.1.8,10.1-18.4,10.1-43.9-.1-67-3.4-7.6-7.9-14.8-13.1-21h0ZM0,51.5l3.3,34.1,52.6,107.8,21.6-10.5L25.1,75.5,0,51.5h0ZM97.1,191l-46.8,22.8,3.1,18.5,56.3-27.5-12.7-13.9h0ZM99.4,227.7l-21.6,10.5,16.7,34.2,21.6-10.5-16.7-34.1h0ZM355.2,301.7c-12.3,9.9-24.6,19.6-37.5,28.2,26.5,38.7,47.8,79.9,73.1,117l35.8-14.8c-26.6-46.8-44.5-82.6-71.4-130.5h0ZM255,358.5c-15.3,3.3-31.6,4.2-49.1,1.7-7.6,29.6-17.7,59.9-25.9,94l33.7,4.9c13.2-31.9,28.8-66.3,41.3-100.7h0Z"/>
    <polygon class="st0" points="198.6 473.1 210.4 459.9 213.5 460.3 210.4 473.1 210.4 509.1 198.6 509.1 198.6 473.1"/>
    <polygon class="st0" points="172.5 470.1 184.3 455.7 187.4 456.2 184.3 470.1 184.3 509.1 172.5 509.1 172.5 470.1"/>
    <polygon class="st0" points="80.8 308.3 92.6 272.4 95.8 274.5 92.6 308.1 92.6 509.1 80.8 509.1 80.8 308.3"/>
    <polygon class="st0" points="38.8 274.8 50.6 232.9 53.7 235.4 50.6 274.6 50.6 509.1 38.8 509.1 38.8 274.8"/>
    <polygon class="st0" points="404.3 463.8 393.4 446.6 390.9 447.6 393.7 463.8 393.7 509.1 404.3 509.1 404.3 463.8"/>
    <polygon class="st0" points="433.8 454.8 423 434.4 420.3 435.4 423.1 454.8 423.1 509.1 433.8 509.1 433.8 454.8"/>
    <polygon class="st0" points="458.2 274.8 440.8 222.2 451 219.7 470 274.6 470 509.1 458.2 509.1 458.2 274.8"/>
    <polygon class="st0" points="428.5 199.5 440.8 222.2 451 219.7 431.8 198.7 428.5 199.5"/>
    <polygon class="st0" points="132.9 218 144.6 164.5 149.7 166.7 144.6 217.6 144.6 509.1 132.9 509.1 132.9 218"/>
  </g>
</svg>