<?xml version="1.0" encoding="UTF-8"?>
<svg id="Layer_2" data-name="Layer 2" xmlns="http://www.w3.org/2000/svg" xmlns:xlink="http://www.w3.org/1999/xlink" viewBox="0 0 365.57 592.58">
  <defs>
    <style>
      .cls-1 {
        fill: #fb7185;
      }

      .cls-1, .cls-2, .cls-3, .cls-4, .cls-5, .cls-6, .cls-7, .cls-8, .cls-9, .cls-10 {
        stroke-width: 0px;
      }

      .cls-2 {
        fill: #881337;
      }

      .cls-3 {
        fill: #9f1239;
      }

      .cls-4 {
        fill: #f43f5e;
      }

      .cls-5 {
        fill: none;
      }

      .cls-6 {
        fill: #f27990;
      }

      .cls-7 {
        fill: #cd184f;
      }

      .cls-8 {
        fill: #fff;
      }

      .cls-9 {
        fill: #e11d48;
      }

      .cls-10 {
        fill: #be123c;
      }

      .cls-11 {
        clip-path: url(#clippath);
      }
    </style>
    <clipPath id="clippath">
      <path class="cls-5" d="m355.89,115.43v157.85c0,13.04-6.96,25.09-18.25,31.62l-136.7,78.92c-11.29,6.52-25.21,6.52-36.51,0L27.73,304.89c-11.29-6.52-18.25-18.57-18.25-31.61V115.43c0-13.04,6.96-25.09,18.25-31.61L164.43,4.89c11.29-6.52,25.21-6.52,36.51,0l136.7,78.92c11.3,6.52,18.25,18.57,18.25,31.62h0Z"/>
    </clipPath>
  </defs>
  <g id="Layer_2-2" data-name="Layer 2">
    <g id="Layer_1-2" data-name="Layer 1-2">
      <g>
        <path class="cls-7" d="m355.89,115.43v157.85c0,13.04-6.96,25.09-18.25,31.62l-136.7,78.92c-11.29,6.52-25.21,6.52-36.51,0L27.73,304.89c-11.29-6.52-18.25-18.57-18.25-31.61V115.43c0-13.04,6.96-25.09,18.25-31.61L164.43,4.89c11.29-6.52,25.21-6.52,36.51,0l136.7,78.92c11.3,6.52,18.25,18.57,18.25,31.62h0Z"/>
        <g class="cls-11">
          <g>
            <path class="cls-6" d="m355.89,115.43v157.85c0,13.04-6.96,25.09-18.25,31.62l-136.7,78.92c-11.29,6.52-25.21,6.52-36.51,0L27.73,304.89c-11.29-6.52-18.25-18.57-18.25-31.61V115.43c0-13.04,6.96-25.09,18.25-31.61L164.43,4.89c11.29-6.52,25.21-6.52,36.51,0l136.7,78.92c11.3,6.52,18.25,18.57,18.25,31.62h0Z"/>
            <g>
              <path class="cls-9" d="m179.72,358.38c0,16.5-11.69,23.25-25.98,15l-112.58-65c-14.29-8.25-25.98-28.5-25.98-45v-130c0-16.5,11.69-23.25,25.98-15l112.58,65c14.29,8.25,25.98,28.5,25.98,45v130Z"/>
              <path class="cls-3" d="m350.2,263.38c0,16.5-11.69,36.75-25.98,45l-112.58,65c-14.29,8.25-25.98,1.5-25.98-15v-130c0-16.5,11.69-36.75,25.98-45l112.58-65c14.29-8.25,25.98-1.5,25.98,15v130Z"/>
              <path class="cls-4" d="m205.7,175.32c-14.29,8.25-37.67,8.25-51.96,0L41.15,110.32c-14.29-8.25-14.29-21.75,0-30L153.74,15.32c14.29-8.25,37.67-8.25,51.96,0l112.58,65c14.29,8.25,14.29,21.75,0,30l-112.58,65h0Z"/>
            </g>
          </g>
        </g>
      </g>
      <g>
        <rect class="cls-7" y="374.31" width="29.24" height="218.27"/>
        <rect class="cls-3" x="18.8" y="374.31" width="10.44" height="218.27"/>
        <path class="cls-2" d="m0,374.31l47.37-58.19,2.37,1.39,2.47,1.45-22.98,55.35H0Z"/>
        <polygon class="cls-1" points="33.14 346.5 49.74 317.51 47.37 316.12 0 374.31 18.8 374.31 33.14 346.5"/>
      </g>
      <g>
        <rect class="cls-9" x="103" y="433.95" width="29.24" height="158.63"/>
        <rect class="cls-3" x="121.8" y="433.95" width="10.44" height="158.63"/>
        <path class="cls-3" d="m103,433.95l47.37-58.19,2.37,1.39,2.47,1.45-22.98,55.35h-29.24.01Z"/>
        <polygon class="cls-1" points="136.14 406.14 152.74 377.15 150.37 375.76 103 433.95 121.8 433.95 136.14 406.14"/>
      </g>
      <g>
        <rect class="cls-3" x="336.32" y="374.31" width="29.24" height="218.27"/>
        <rect class="cls-9" x="336.32" y="374.31" width="10.44" height="218.27"/>
        <path class="cls-10" d="m365.56,374.31l-47.37-58.19-2.37,1.39-2.47,1.45,22.98,55.35h29.24-.01Z"/>
        <polygon class="cls-9" points="332.42 346.5 315.82 317.51 318.19 316.12 365.56 374.31 346.76 374.31 332.42 346.5"/>
      </g>
      <g>
        <rect class="cls-3" x="233.32" y="433.95" width="29.24" height="158.63"/>
        <rect class="cls-9" x="233.32" y="433.95" width="10.44" height="158.63"/>
        <path class="cls-10" d="m262.56,433.95l-47.37-58.19-2.37,1.39-2.47,1.45,22.98,55.35h29.24-.01Z"/>
        <polygon class="cls-9" points="229.42 406.14 212.82 377.15 215.19 375.76 262.56 433.95 243.76 433.95 229.42 406.14"/>
      </g>
      <g>
        <g>
          <rect class="cls-9" x="165.73" y="463.76" width="29.24" height="128.82"/>
          <rect class="cls-2" x="184.53" y="463.76" width="10.44" height="128.82"/>
          <polygon class="cls-4" points="165.73 463.76 180.36 388.71 182.69 388.71 184.53 388.71 194.98 463.76 181.04 463.76 180.36 463.76 165.73 463.76"/>
        </g>
        <polygon class="cls-10" points="184.54 388.71 194.98 463.76 184.53 463.76 182.69 388.71 184.54 388.71"/>
      </g>
      <ellipse class="cls-8" cx="177.57" cy="45.52" rx="24.49" ry="14.14"/>
      <ellipse class="cls-8" cx="48.05" cy="167.97" rx="14.14" ry="24.49" transform="translate(-77.55 46.53) rotate(-30)"/>
      <ellipse class="cls-8" cx="274.41" cy="245.18" rx="24.49" ry="14.14" transform="translate(-75.12 360.24) rotate(-60)"/>
      <ellipse class="cls-8" cx="271.74" cy="99.66" rx="24.49" ry="14.14"/>
      <ellipse class="cls-8" cx="220.52" cy="69.44" rx="24.49" ry="14.14"/>
      <ellipse class="cls-8" cx="87.8" cy="92.59" rx="24.49" ry="14.14"/>
      <ellipse class="cls-8" cx="181.97" cy="146.72" rx="24.49" ry="14.14"/>
      <ellipse class="cls-8" cx="130.75" cy="116.51" rx="24.49" ry="14.14"/>
      <ellipse class="cls-8" cx="137.31" cy="212.43" rx="14.14" ry="24.49" transform="translate(-87.82 97.12) rotate(-30)"/>
      <ellipse class="cls-8" cx="48.05" cy="278.83" rx="14.14" ry="24.49" transform="translate(-132.98 61.38) rotate(-30)"/>
      <ellipse class="cls-8" cx="130.75" cy="322.48" rx="14.14" ry="24.49" transform="translate(-143.72 108.58) rotate(-30)"/>
      <ellipse class="cls-8" cx="88.68" cy="249.6" rx="14.14" ry="24.49" transform="translate(-112.92 77.78) rotate(-30)"/>
      <ellipse class="cls-8" cx="319" cy="167.96" rx="24.49" ry="14.14" transform="translate(14.04 360.24) rotate(-60)"/>
      <ellipse class="cls-8" cx="225.36" cy="330.15" rx="24.49" ry="14.14" transform="translate(-173.24 360.24) rotate(-60)"/>
    </g>
  </g>
</svg>