<?xml version="1.0" encoding="UTF-8"?>
<svg id="Layer_2" data-name="Layer 2" xmlns="http://www.w3.org/2000/svg" viewBox="0 0 469.99 509.08">
  <defs>
    <style>
      .cls-1 {
        fill: #fff;
        stroke-width: 0px;
      }
    </style>
  </defs>
  <g id="Layer_1-2" data-name="Layer 1">
    <path class="cls-1" d="m452.37,0c-53.21,3.52-101.28,8.09-139.14,50.18,9.87,29.56,26.17,65.88,46.61,95.23,20.5,29.44,44.76,50.59,68.61,53.3,35.27-33.06,53.7-112.6,23.92-198.71ZM178.74,8.51c-.96.02-1.94.07-2.94.14-16.94,1.25-26.29,7.65-33.82,17.94s-12.56,25.02-17.38,41.32c-5.43,18.33-6.27,41.73-1.66,60.48,4.53,18.42,13.49,31.2,26.94,34.46.19-1.17.42-2.53.6-4.5.82-8.77,3.21-23.58,14.89-42.71-7.75-7.45-14.67-13.69-18.12-22.62-2.07-5.36-2.39-11.6-.84-17.99,1.55-6.4,4.73-13.14,9.62-21.26l.04-.06.04-.06c8.57-13.67,26.54-21.69,43.51-27.75,5.4-1.93,10.53-3.4,15.42-4.65-11.15-7.45-21.86-13.03-36.29-12.73h0Zm45.07,27c-5.42,1.16-12.07,3.04-18.82,5.45-15.47,5.52-31.43,15-35.31,21.14-4.38,7.29-6.78,12.78-7.73,16.69-.95,3.93-.7,6.08.21,8.45,1.83,4.74,8.77,11.12,19.09,21.59l4.62,4.68-3.7,5.44c-5.35,7.86-8.79,14.56-11.07,20.35,5.82,3.36,11.87,5.68,17.93,6.88,2.39,57.51-19.43,43.88-70.54,73.61l15.89,31.69c26.64-10.29,42.46-16.22,56.04-28.89,11.99,12.07,26.85,22.39,44.15,33.44-.04,11.56-51.4,80.24-52.49,79.88,1,1.16,2.09,2.25,3.26,3.24,29.1,9.09,53.46,8.21,75.89,1.27.1-.29.2-.59.3-.88,12.76-4.46,25.88-10.43,38.63-17.43,20.59-12.74,40.45-29.3,61.11-45.85-10.31-22.79-41.56-34.84-62.13-43.95,9.77-20.02,5.39-41.39,2.52-60.55,18.74-1.99,33.02-7.84,46.53-15.15-.49-.69-.99-1.36-1.47-2.06-7.05-10.12-13.59-20.91-19.56-31.93-28.22,12.08-59.03,17-90.14.85,10.15-18.39,10.11-43.88-.12-66.96-3.42-7.64-7.85-14.75-13.09-21.01h0ZM0,51.46l3.29,34.09,52.6,107.77,21.57-10.53L25.07,75.47,0,51.46h0Zm97.07,139.57l-46.76,22.82,3.14,18.5,56.27-27.46s-12.65-13.85-12.65-13.85Zm2.32,36.7l-21.57,10.53,16.67,34.15,21.57-10.53-16.67-34.15h0Zm255.86,73.93c-12.26,9.86-24.63,19.56-37.52,28.21,26.45,38.68,47.77,79.92,73.05,117l35.82-14.75c-26.58-46.83-44.46-82.61-71.35-130.46Zm-100.25,56.81c-15.27,3.34-31.57,4.21-49.07,1.73-7.57,29.61-17.66,59.91-25.95,94.04l33.71,4.92c13.21-31.92,28.81-66.29,41.31-100.68Z"/>
    <polygon class="cls-1" points="198.55 473.15 210.35 459.9 213.46 460.34 210.35 473.15 210.35 509.08 198.55 509.08 198.55 473.15"/>
    <polygon class="cls-1" points="172.51 470.08 184.32 455.69 187.43 456.17 184.32 470.08 184.32 509.08 172.51 509.08 172.51 470.08"/>
    <polygon class="cls-1" points="80.83 308.34 92.64 272.41 95.75 274.54 92.64 308.11 92.64 509.08 80.83 509.08 80.83 308.34"/>
    <polygon class="cls-1" points="38.77 274.83 50.58 232.9 53.69 235.39 50.58 274.57 50.58 509.08 38.77 509.08 38.77 274.83"/>
    <polygon class="cls-1" points="404.3 463.75 393.39 446.6 390.86 447.59 393.66 463.75 393.66 509.08 404.3 509.08 404.3 463.75"/>
    <polygon class="cls-1" points="433.77 454.77 422.95 434.4 420.33 435.41 423.13 454.77 423.13 509.08 433.77 509.08 433.77 454.77"/>
    <polygon class="cls-1" points="458.19 274.83 440.79 222.17 450.97 219.7 469.99 274.57 469.99 509.08 458.19 509.08 458.19 274.83"/>
    <polygon class="cls-1" points="428.5 199.53 440.79 222.17 450.97 219.7 431.8 198.71 428.5 199.53"/>
    <polygon class="cls-1" points="132.85 217.96 144.59 164.5 149.72 166.71 144.65 217.63 144.65 509.08 132.85 509.08 132.85 217.96"/>
  </g>
</svg>